<?xml version="1.0" encoding="UTF-8" standalone="no"?>
<!-- Created with Inkscape (http://www.inkscape.org/) -->

<svg
   xmlns:dc="http://purl.org/dc/elements/1.1/"
   xmlns:cc="http://creativecommons.org/ns#"
   xmlns:rdf="http://www.w3.org/1999/02/22-rdf-syntax-ns#"
   xmlns:svg="http://www.w3.org/2000/svg"
   xmlns="http://www.w3.org/2000/svg"
   xmlns:xlink="http://www.w3.org/1999/xlink"
   xmlns:sodipodi="http://sodipodi.sourceforge.net/DTD/sodipodi-0.dtd"
   xmlns:inkscape="http://www.inkscape.org/namespaces/inkscape"
   width="700"
   height="950"
   viewBox="0 0 185.20834 251.35418"
   version="1.1"
   id="svg16"
   sodipodi:docname="rocket.svg"
   inkscape:version="0.92.5 (2060ec1f9f, 2020-04-08)">
  <defs
     id="defs10">
    <inkscape:path-effect
       effect="spiro"
       id="path-effect1383"
       is_visible="true" />
    <linearGradient
       inkscape:collect="always"
       id="linearGradient1227">
      <stop
         style="stop-color:#ffffff;stop-opacity:1;"
         offset="0"
         id="stop1223" />
      <stop
         style="stop-color:#ffffff;stop-opacity:0;"
         offset="1"
         id="stop1225" />
    </linearGradient>
    <linearGradient
       inkscape:collect="always"
       id="linearGradient1086">
      <stop
         style="stop-color:#000000;stop-opacity:0"
         offset="0"
         id="stop1082" />
      <stop
         style="stop-color:#ffffff;stop-opacity:0;"
         offset="1"
         id="stop1084" />
    </linearGradient>
    <linearGradient
       inkscape:collect="always"
       id="linearGradient1049">
      <stop
         style="stop-color:#bbffff;stop-opacity:1"
         offset="0"
         id="stop1045" />
      <stop
         style="stop-color:#ffbbbb;stop-opacity:1"
         offset="1"
         id="stop1047" />
    </linearGradient>
    <inkscape:path-effect
       effect="spiro"
       id="path-effect999"
       is_visible="true" />
    <inkscape:path-effect
       effect="spiro"
       id="path-effect987"
       is_visible="true" />
    <inkscape:path-effect
       effect="spiro"
       id="path-effect983"
       is_visible="true" />
    <inkscape:path-effect
       effect="spiro"
       id="path-effect971"
       is_visible="true" />
    <inkscape:path-effect
       effect="spiro"
       id="path-effect922"
       is_visible="true" />
    <inkscape:path-effect
       effect="spiro"
       id="path-effect882"
       is_visible="true" />
    <inkscape:path-effect
       effect="bspline"
       id="path-effect876"
       is_visible="true"
       weight="33.333333"
       steps="2"
       helper_size="0"
       apply_no_weight="true"
       apply_with_weight="true"
       only_selected="false" />
    <inkscape:path-effect
       effect="spiro"
       id="path-effect882-7"
       is_visible="true" />
    <linearGradient
       inkscape:collect="always"
       xlink:href="#linearGradient1049"
       id="linearGradient1061"
       x1="62.300255"
       y1="85.270531"
       x2="87.958321"
       y2="85.270531"
       gradientUnits="userSpaceOnUse"
       gradientTransform="translate(-9.8285272,46.927158)" />
    <linearGradient
       inkscape:collect="always"
       xlink:href="#linearGradient1086"
       id="linearGradient1088"
       x1="138.64168"
       y1="134.40834"
       x2="101.60001"
       y2="139.17084"
       gradientUnits="userSpaceOnUse" />
    <linearGradient
       inkscape:collect="always"
       xlink:href="#linearGradient1227"
       id="linearGradient1229"
       x1="105.60296"
       y1="210.68709"
       x2="109.17483"
       y2="210.68709"
       gradientUnits="userSpaceOnUse"
       gradientTransform="translate(-11.416027,46.927158)" />
    <linearGradient
       inkscape:collect="always"
       xlink:href="#linearGradient1227"
       id="linearGradient1231"
       x1="89.317627"
       y1="152.90924"
       x2="92.889496"
       y2="152.90924"
       gradientUnits="userSpaceOnUse"
       gradientTransform="translate(-11.416027,46.927158)" />
    <linearGradient
       inkscape:collect="always"
       xlink:href="#linearGradient1227"
       id="linearGradient1233"
       x1="86.320328"
       y1="142.74271"
       x2="89.892197"
       y2="142.74271"
       gradientUnits="userSpaceOnUse"
       gradientTransform="translate(-11.416027,46.927158)" />
    <linearGradient
       inkscape:collect="always"
       xlink:href="#linearGradient1227"
       id="linearGradient1235"
       x1="83.542191"
       y1="132.55626"
       x2="87.114059"
       y2="132.55626"
       gradientUnits="userSpaceOnUse"
       gradientTransform="translate(-11.416027,46.927158)" />
    <linearGradient
       inkscape:collect="always"
       xlink:href="#linearGradient1227"
       id="linearGradient1237"
       x1="80.875725"
       y1="122.79897"
       x2="84.447594"
       y2="122.79897"
       gradientUnits="userSpaceOnUse"
       gradientTransform="translate(-11.416027,46.927158)" />
    <radialGradient
       inkscape:collect="always"
       xlink:href="#linearGradient1049"
       id="radialGradient1362"
       cx="105.90136"
       cy="331.12921"
       fx="105.90136"
       fy="331.12921"
       r="79.526657"
       gradientTransform="matrix(0.83365107,0.00665395,-0.00131954,0.1653206,18.053516,227.59355)"
       gradientUnits="userSpaceOnUse" />
    <linearGradient
       inkscape:collect="always"
       xlink:href="#linearGradient1049"
       id="linearGradient962"
       x1="380.12833"
       y1="861.2605"
       x2="550.3515"
       y2="861.2605"
       gradientUnits="userSpaceOnUse" />
    <filter
       inkscape:label="Sharpen"
       inkscape:menu="Image Effects"
       inkscape:menu-tooltip="Sharpen edges and boundaries within the object, force=0.15"
       style="color-interpolation-filters:sRGB"
       id="filter967">
      <feConvolveMatrix
         order="3 3"
         kernelMatrix="0 -0.15 0 -0.15 1.6 -0.15 0 -0.15 0"
         divisor="1"
         in="SourceGraphic"
         targetX="1"
         targetY="1"
         id="feConvolveMatrix965" />
    </filter>
    <filter
       inkscape:label="Sharpen"
       inkscape:menu="Image Effects"
       inkscape:menu-tooltip="Sharpen edges and boundaries within the object, force=0.15"
       style="color-interpolation-filters:sRGB"
       id="filter971">
      <feConvolveMatrix
         order="3 3"
         kernelMatrix="0 -0.15 0 -0.15 1.6 -0.15 0 -0.15 0"
         divisor="1"
         in="SourceGraphic"
         targetX="1"
         targetY="1"
         id="feConvolveMatrix969" />
    </filter>
    <filter
       inkscape:label="Sharpen"
       inkscape:menu="Image Effects"
       inkscape:menu-tooltip="Sharpen edges and boundaries within the object, force=0.15"
       style="color-interpolation-filters:sRGB"
       id="filter975">
      <feConvolveMatrix
         order="3 3"
         kernelMatrix="0 -0.15 0 -0.15 1.6 -0.15 0 -0.15 0"
         divisor="1"
         in="SourceGraphic"
         targetX="1"
         targetY="1"
         id="feConvolveMatrix973" />
    </filter>
    <filter
       inkscape:label="Sharpen"
       inkscape:menu="Image Effects"
       inkscape:menu-tooltip="Sharpen edges and boundaries within the object, force=0.15"
       style="color-interpolation-filters:sRGB"
       id="filter979">
      <feConvolveMatrix
         order="3 3"
         kernelMatrix="0 -0.15 0 -0.15 1.6 -0.15 0 -0.15 0"
         divisor="1"
         in="SourceGraphic"
         targetX="1"
         targetY="1"
         id="feConvolveMatrix977" />
    </filter>
    <filter
       inkscape:label="Sharpen"
       inkscape:menu="Image Effects"
       inkscape:menu-tooltip="Sharpen edges and boundaries within the object, force=0.15"
       style="color-interpolation-filters:sRGB"
       id="filter983">
      <feConvolveMatrix
         order="3 3"
         kernelMatrix="0 -0.15 0 -0.15 1.6 -0.15 0 -0.15 0"
         divisor="1"
         in="SourceGraphic"
         targetX="1"
         targetY="1"
         id="feConvolveMatrix981" />
    </filter>
    <filter
       inkscape:label="Sharpen"
       inkscape:menu="Image Effects"
       inkscape:menu-tooltip="Sharpen edges and boundaries within the object, force=0.15"
       style="color-interpolation-filters:sRGB"
       id="filter987">
      <feConvolveMatrix
         order="3 3"
         kernelMatrix="0 -0.15 0 -0.15 1.6 -0.15 0 -0.15 0"
         divisor="1"
         in="SourceGraphic"
         targetX="1"
         targetY="1"
         id="feConvolveMatrix985" />
    </filter>
    <filter
       inkscape:label="Sharpen"
       inkscape:menu="Image Effects"
       inkscape:menu-tooltip="Sharpen edges and boundaries within the object, force=0.15"
       style="color-interpolation-filters:sRGB"
       id="filter991">
      <feConvolveMatrix
         order="3 3"
         kernelMatrix="0 -0.15 0 -0.15 1.6 -0.15 0 -0.15 0"
         divisor="1"
         in="SourceGraphic"
         targetX="1"
         targetY="1"
         id="feConvolveMatrix989" />
    </filter>
    <filter
       inkscape:label="Sharpen"
       inkscape:menu="Image Effects"
       inkscape:menu-tooltip="Sharpen edges and boundaries within the object, force=0.15"
       style="color-interpolation-filters:sRGB"
       id="filter995">
      <feConvolveMatrix
         order="3 3"
         kernelMatrix="0 -0.15 0 -0.15 1.6 -0.15 0 -0.15 0"
         divisor="1"
         in="SourceGraphic"
         targetX="1"
         targetY="1"
         id="feConvolveMatrix993" />
    </filter>
    <filter
       inkscape:label="Sharpen"
       inkscape:menu="Image Effects"
       inkscape:menu-tooltip="Sharpen edges and boundaries within the object, force=0.15"
       style="color-interpolation-filters:sRGB"
       id="filter999">
      <feConvolveMatrix
         order="3 3"
         kernelMatrix="0 -0.15 0 -0.15 1.6 -0.15 0 -0.15 0"
         divisor="1"
         in="SourceGraphic"
         targetX="1"
         targetY="1"
         id="feConvolveMatrix997" />
    </filter>
    <filter
       inkscape:label="Sharpen"
       inkscape:menu="Image Effects"
       inkscape:menu-tooltip="Sharpen edges and boundaries within the object, force=0.15"
       style="color-interpolation-filters:sRGB"
       id="filter1003">
      <feConvolveMatrix
         order="3 3"
         kernelMatrix="0 -0.15 0 -0.15 1.6 -0.15 0 -0.15 0"
         divisor="1"
         in="SourceGraphic"
         targetX="1"
         targetY="1"
         id="feConvolveMatrix1001" />
    </filter>
    <filter
       inkscape:label="Sharpen"
       inkscape:menu="Image Effects"
       inkscape:menu-tooltip="Sharpen edges and boundaries within the object, force=0.15"
       style="color-interpolation-filters:sRGB"
       id="filter1007">
      <feConvolveMatrix
         order="3 3"
         kernelMatrix="0 -0.15 0 -0.15 1.6 -0.15 0 -0.15 0"
         divisor="1"
         in="SourceGraphic"
         targetX="1"
         targetY="1"
         id="feConvolveMatrix1005" />
    </filter>
    <filter
       inkscape:label="Sharpen"
       inkscape:menu="Image Effects"
       inkscape:menu-tooltip="Sharpen edges and boundaries within the object, force=0.15"
       style="color-interpolation-filters:sRGB"
       id="filter1011">
      <feConvolveMatrix
         order="3 3"
         kernelMatrix="0 -0.15 0 -0.15 1.6 -0.15 0 -0.15 0"
         divisor="1"
         in="SourceGraphic"
         targetX="1"
         targetY="1"
         id="feConvolveMatrix1009" />
    </filter>
    <filter
       inkscape:label="Sharpen"
       inkscape:menu="Image Effects"
       inkscape:menu-tooltip="Sharpen edges and boundaries within the object, force=0.15"
       style="color-interpolation-filters:sRGB"
       id="filter1015">
      <feConvolveMatrix
         order="3 3"
         kernelMatrix="0 -0.15 0 -0.15 1.6 -0.15 0 -0.15 0"
         divisor="1"
         in="SourceGraphic"
         targetX="1"
         targetY="1"
         id="feConvolveMatrix1013" />
    </filter>
    <filter
       inkscape:label="Sharpen"
       inkscape:menu="Image Effects"
       inkscape:menu-tooltip="Sharpen edges and boundaries within the object, force=0.15"
       style="color-interpolation-filters:sRGB"
       id="filter1019">
      <feConvolveMatrix
         order="3 3"
         kernelMatrix="0 -0.15 0 -0.15 1.6 -0.15 0 -0.15 0"
         divisor="1"
         in="SourceGraphic"
         targetX="1"
         targetY="1"
         id="feConvolveMatrix1017" />
    </filter>
    <filter
       inkscape:label="Sharpen"
       inkscape:menu="Image Effects"
       inkscape:menu-tooltip="Sharpen edges and boundaries within the object, force=0.15"
       style="color-interpolation-filters:sRGB"
       id="filter1023">
      <feConvolveMatrix
         order="3 3"
         kernelMatrix="0 -0.15 0 -0.15 1.6 -0.15 0 -0.15 0"
         divisor="1"
         in="SourceGraphic"
         targetX="1"
         targetY="1"
         id="feConvolveMatrix1021" />
    </filter>
    <filter
       inkscape:label="Sharpen"
       inkscape:menu="Image Effects"
       inkscape:menu-tooltip="Sharpen edges and boundaries within the object, force=0.15"
       style="color-interpolation-filters:sRGB"
       id="filter1027">
      <feConvolveMatrix
         order="3 3"
         kernelMatrix="0 -0.15 0 -0.15 1.6 -0.15 0 -0.15 0"
         divisor="1"
         in="SourceGraphic"
         targetX="1"
         targetY="1"
         id="feConvolveMatrix1025" />
    </filter>
    <filter
       inkscape:label="Sharpen"
       inkscape:menu="Image Effects"
       inkscape:menu-tooltip="Sharpen edges and boundaries within the object, force=0.15"
       style="color-interpolation-filters:sRGB"
       id="filter1031">
      <feConvolveMatrix
         order="3 3"
         kernelMatrix="0 -0.15 0 -0.15 1.6 -0.15 0 -0.15 0"
         divisor="1"
         in="SourceGraphic"
         targetX="1"
         targetY="1"
         id="feConvolveMatrix1029" />
    </filter>
    <filter
       inkscape:label="Sharpen"
       inkscape:menu="Image Effects"
       inkscape:menu-tooltip="Sharpen edges and boundaries within the object, force=0.15"
       style="color-interpolation-filters:sRGB"
       id="filter1035">
      <feConvolveMatrix
         order="3 3"
         kernelMatrix="0 -0.15 0 -0.15 1.6 -0.15 0 -0.15 0"
         divisor="1"
         in="SourceGraphic"
         targetX="1"
         targetY="1"
         id="feConvolveMatrix1033" />
    </filter>
    <filter
       inkscape:label="Sharpen"
       inkscape:menu="Image Effects"
       inkscape:menu-tooltip="Sharpen edges and boundaries within the object, force=0.15"
       style="color-interpolation-filters:sRGB"
       id="filter1039">
      <feConvolveMatrix
         order="3 3"
         kernelMatrix="0 -0.15 0 -0.15 1.6 -0.15 0 -0.15 0"
         divisor="1"
         in="SourceGraphic"
         targetX="1"
         targetY="1"
         id="feConvolveMatrix1037" />
    </filter>
    <filter
       inkscape:label="Sharpen"
       inkscape:menu="Image Effects"
       inkscape:menu-tooltip="Sharpen edges and boundaries within the object, force=0.15"
       style="color-interpolation-filters:sRGB"
       id="filter1043">
      <feConvolveMatrix
         order="3 3"
         kernelMatrix="0 -0.15 0 -0.15 1.6 -0.15 0 -0.15 0"
         divisor="1"
         in="SourceGraphic"
         targetX="1"
         targetY="1"
         id="feConvolveMatrix1041" />
    </filter>
    <filter
       inkscape:label="Sharpen"
       inkscape:menu="Image Effects"
       inkscape:menu-tooltip="Sharpen edges and boundaries within the object, force=0.15"
       style="color-interpolation-filters:sRGB"
       id="filter1047">
      <feConvolveMatrix
         order="3 3"
         kernelMatrix="0 -0.15 0 -0.15 1.6 -0.15 0 -0.15 0"
         divisor="1"
         in="SourceGraphic"
         targetX="1"
         targetY="1"
         id="feConvolveMatrix1045" />
    </filter>
    <filter
       inkscape:label="Sharpen"
       inkscape:menu="Image Effects"
       inkscape:menu-tooltip="Sharpen edges and boundaries within the object, force=0.15"
       style="color-interpolation-filters:sRGB"
       id="filter1051">
      <feConvolveMatrix
         order="3 3"
         kernelMatrix="0 -0.15 0 -0.15 1.6 -0.15 0 -0.15 0"
         divisor="1"
         in="SourceGraphic"
         targetX="1"
         targetY="1"
         id="feConvolveMatrix1049" />
    </filter>
    <filter
       inkscape:label="Sharpen"
       inkscape:menu="Image Effects"
       inkscape:menu-tooltip="Sharpen edges and boundaries within the object, force=0.15"
       style="color-interpolation-filters:sRGB"
       id="filter1055">
      <feConvolveMatrix
         order="3 3"
         kernelMatrix="0 -0.15 0 -0.15 1.6 -0.15 0 -0.15 0"
         divisor="1"
         in="SourceGraphic"
         targetX="1"
         targetY="1"
         id="feConvolveMatrix1053" />
    </filter>
    <filter
       inkscape:label="Sharpen"
       inkscape:menu="Image Effects"
       inkscape:menu-tooltip="Sharpen edges and boundaries within the object, force=0.15"
       style="color-interpolation-filters:sRGB"
       id="filter1059">
      <feConvolveMatrix
         order="3 3"
         kernelMatrix="0 -0.15 0 -0.15 1.6 -0.15 0 -0.15 0"
         divisor="1"
         in="SourceGraphic"
         targetX="1"
         targetY="1"
         id="feConvolveMatrix1057" />
    </filter>
    <filter
       inkscape:label="Sharpen"
       inkscape:menu="Image Effects"
       inkscape:menu-tooltip="Sharpen edges and boundaries within the object, force=0.15"
       style="color-interpolation-filters:sRGB"
       id="filter1063">
      <feConvolveMatrix
         order="3 3"
         kernelMatrix="0 -0.15 0 -0.15 1.6 -0.15 0 -0.15 0"
         divisor="1"
         in="SourceGraphic"
         targetX="1"
         targetY="1"
         id="feConvolveMatrix1061" />
    </filter>
    <filter
       inkscape:label="Sharpen"
       inkscape:menu="Image Effects"
       inkscape:menu-tooltip="Sharpen edges and boundaries within the object, force=0.15"
       style="color-interpolation-filters:sRGB"
       id="filter1067">
      <feConvolveMatrix
         order="3 3"
         kernelMatrix="0 -0.15 0 -0.15 1.6 -0.15 0 -0.15 0"
         divisor="1"
         in="SourceGraphic"
         targetX="1"
         targetY="1"
         id="feConvolveMatrix1065" />
    </filter>
    <filter
       inkscape:label="Sharpen"
       inkscape:menu="Image Effects"
       inkscape:menu-tooltip="Sharpen edges and boundaries within the object, force=0.15"
       style="color-interpolation-filters:sRGB"
       id="filter1071">
      <feConvolveMatrix
         order="3 3"
         kernelMatrix="0 -0.15 0 -0.15 1.6 -0.15 0 -0.15 0"
         divisor="1"
         in="SourceGraphic"
         targetX="1"
         targetY="1"
         id="feConvolveMatrix1069" />
    </filter>
    <filter
       inkscape:label="Sharpen"
       inkscape:menu="Image Effects"
       inkscape:menu-tooltip="Sharpen edges and boundaries within the object, force=0.15"
       style="color-interpolation-filters:sRGB"
       id="filter1075">
      <feConvolveMatrix
         order="3 3"
         kernelMatrix="0 -0.15 0 -0.15 1.6 -0.15 0 -0.15 0"
         divisor="1"
         in="SourceGraphic"
         targetX="1"
         targetY="1"
         id="feConvolveMatrix1073" />
    </filter>
    <filter
       inkscape:label="Sharpen"
       inkscape:menu="Image Effects"
       inkscape:menu-tooltip="Sharpen edges and boundaries within the object, force=0.15"
       style="color-interpolation-filters:sRGB"
       id="filter1079">
      <feConvolveMatrix
         order="3 3"
         kernelMatrix="0 -0.15 0 -0.15 1.6 -0.15 0 -0.15 0"
         divisor="1"
         in="SourceGraphic"
         targetX="1"
         targetY="1"
         id="feConvolveMatrix1077" />
    </filter>
    <filter
       inkscape:label="Sharpen"
       inkscape:menu="Image Effects"
       inkscape:menu-tooltip="Sharpen edges and boundaries within the object, force=0.15"
       style="color-interpolation-filters:sRGB"
       id="filter1083">
      <feConvolveMatrix
         order="3 3"
         kernelMatrix="0 -0.15 0 -0.15 1.6 -0.15 0 -0.15 0"
         divisor="1"
         in="SourceGraphic"
         targetX="1"
         targetY="1"
         id="feConvolveMatrix1081" />
    </filter>
    <linearGradient
       inkscape:collect="always"
       xlink:href="#linearGradient1049"
       id="linearGradient1109"
       x1="435.69852"
       y1="458.48907"
       x2="592.50098"
       y2="458.48907"
       gradientUnits="userSpaceOnUse"
       gradientTransform="matrix(0.26458334,0,0,0.26458334,-32.279168,0.52916669)" />
    <linearGradient
       inkscape:collect="always"
       xlink:href="#linearGradient1049"
       id="linearGradient1120"
       x1="162.88184"
       y1="543.86273"
       x2="280.7627"
       y2="543.86273"
       gradientUnits="userSpaceOnUse"
       gradientTransform="matrix(0.26458334,0,0,0.26458334,-32.279168,0.52916669)" />
  </defs>
  <sodipodi:namedview
     id="base"
     pagecolor="#ffffff"
     bordercolor="#666666"
     borderopacity="1.0"
     inkscape:pageopacity="0"
     inkscape:pageshadow="2"
     inkscape:zoom="0.5"
     inkscape:cx="353.88188"
     inkscape:cy="476.17273"
     inkscape:document-units="px"
     inkscape:current-layer="layer8"
     showgrid="false"
     units="px"
     inkscape:showpageshadow="false"
     objecttolerance="1"
     gridtolerance="1"
     guidetolerance="1"
     inkscape:snap-tangential="true"
     inkscape:window-width="1366"
     inkscape:window-height="712"
     inkscape:window-x="0"
     inkscape:window-y="0"
     inkscape:window-maximized="1"
     showguides="false"
     inkscape:pagecheckerboard="true">
    <inkscape:grid
       type="xygrid"
       id="grid18"
       spacingx="2.6458333"
       spacingy="2.6458333" />
  </sodipodi:namedview>
  <metadata
     id="metadata13">
    <rdf:RDF>
      <cc:Work
         rdf:about="">
        <dc:format>image/svg+xml</dc:format>
        <dc:type
           rdf:resource="http://purl.org/dc/dcmitype/StillImage" />
        <dc:title></dc:title>
      </cc:Work>
    </rdf:RDF>
  </metadata>
  <g
     inkscape:label="Camada 1"
     inkscape:groupmode="layer"
     id="layer1"
     transform="translate(0,-45.645804)" />
  <g
     inkscape:groupmode="layer"
     id="layer3"
     inkscape:label="ground"
     transform="translate(0,-87.312488)">
    <g
       inkscape:groupmode="layer"
       id="layer4"
       inkscape:label="bottom" />
    <g
       inkscape:groupmode="layer"
       id="layer5"
       inkscape:label="top" />
  </g>
  <g
     inkscape:groupmode="layer"
     id="layer6"
     inkscape:label="rocket"
     transform="translate(0,-39.687501)">
    <g
       inkscape:groupmode="layer"
       id="layer8"
       inkscape:label="gradient">
      <path
         style="fill:none;stroke:#000000;stroke-width:1.85208344;stroke-linecap:round;stroke-linejoin:miter;stroke-miterlimit:4;stroke-dasharray:3.70416678, 11.11250034;stroke-dashoffset:0;stroke-opacity:1;filter:url(#filter1083)"
         d="m 133.95549,20.137276 c 2.39582,0.0659 4.7431,1.19404 6.29125,3.023671 1.54814,1.829631 2.27221,4.331254 1.94065,6.70494 -0.36911,2.642576 -2.00981,5.030158 -4.21409,6.533701 -2.20427,1.503542 -4.92648,2.15892 -7.59359,2.081644 -2.66711,-0.07728 -5.28246,-0.857565 -7.68422,-2.019891 -2.40176,-1.162325 -4.60357,-2.700452 -6.70051,-4.35039 C 106.23206,24.429178 98.441258,14.152596 87.557498,8.1636004 77.362038,2.5533546 64.643979,1.3000068 53.885961,5.7370445 48.506952,7.9555633 43.680333,11.54089 40.106344,16.132421 c -3.57399,4.591532 -5.873516,10.186685 -6.430383,15.97853 -0.230098,2.393197 -0.16501,4.832002 0.408123,7.166923 0.573133,2.33492 1.671408,4.56643 3.333652,6.303462 1.70889,1.785777 3.93261,2.982918 6.166241,4.04131 2.233632,1.058393 4.535441,2.018333 6.555788,3.442236 2.188088,1.542124 4.000461,3.613407 5.238483,5.986839"
         id="path1381"
         inkscape:connector-curvature="0"
         inkscape:path-effect="#path-effect1383"
         inkscape:original-d="m 133.95549,20.137276 c 2.74423,3.242605 5.4882,6.485475 8.2319,9.728611 2.7437,3.243136 -17.46134,1.496444 -26.19241,2.245064 C 107.26391,32.859571 97.036924,16.145786 87.557498,8.1636004 78.078075,0.18141501 51.636738,24.128236 33.675961,32.110951 c -17.960777,7.982715 2.49478,8.979993 3.741775,13.470385 1.246992,4.490392 8.481616,4.988766 12.722029,7.483546 4.240411,2.49478 3.492585,3.99096 5.238483,5.986839"
         transform="translate(-9.8285272,46.927158)" />
      <path
         style="fill:url(#linearGradient962);fill-opacity:1;stroke-width:2.12132025;stroke-linecap:round;stroke-miterlimit:4;stroke-dasharray:none;filter:url(#filter1079)"
         d="m 459.35467,776.38218 c -16.59799,-0.0576 -32.55741,7.12868 -45.70484,16.8705 -22.16271,16.63739 -35.1753,44.56142 -33.35212,72.25886 1.04794,37.05948 29.88934,70.92262 66.06519,78.5243 13.82784,3.47485 28.63923,2.64863 42.32013,-1.1231 27.79873,-7.55204 50.55163,-30.31483 58.40328,-57.98911 4.04728,-13.17408 3.90315,-27.37571 1.88724,-40.8926 -5.73709,-27.25378 -25.12123,-51.33923 -51.07466,-61.78483 -9.74587,-4.2759 -20.32094,-6.48534 -30.97869,-5.86178 -2.52179,-0.012 -5.04375,-0.0189 -7.56553,-0.002 z m 6.1637,25.27355 c 25.53942,-1.16471 49.78218,17.25707 57.21595,41.43536 6.24904,19.80296 1.57533,43.05862 -12.94858,58.15897 -15.60301,17.52736 -41.88826,24.09742 -63.906,15.84776 -23.78518,-8.2933 -40.73582,-32.89595 -39.32054,-58.1554 0.0926,-28.46348 24.1964,-54.0636 52.07869,-57.02429 2.2982,-0.19051 4.55841,-0.26251 6.88048,-0.2624 z"
         id="path149"
         inkscape:connector-curvature="0"
         transform="matrix(0.26458334,0,0,0.26458334,-32.279168,0.52916669)" />
      <path
         style="fill:url(#linearGradient1109);fill-opacity:1;stroke-width:0.79375005;stroke-linecap:round;stroke-miterlimit:4;stroke-dasharray:none"
         d="m 83.000881,87.981658 c -0.05443,1.165778 1.406149,2.17814 1.887741,3.28042 8.048379,11.697522 16.088988,23.400682 24.249168,35.020092 -4.32553,4.27091 -8.89768,8.38314 -13.070522,12.75219 5.352222,5.05708 10.673992,10.21082 15.416632,15.87242 0.28609,0.43783 1.13687,1.34706 1.37046,0.38602 3.98026,-9.90688 7.91092,-19.83929 11.63237,-29.84521 -1.63458,-2.05328 -3.92632,-3.68434 -5.81122,-5.56827 C 106.89715,109.20331 95.197863,98.421698 83.236527,87.957885 Z"
         id="path1091"
         inkscape:connector-curvature="0" />
      <path
         style="fill:url(#linearGradient1120);fill-opacity:1;stroke-width:0.79375005;stroke-linecap:round;stroke-miterlimit:4;stroke-dasharray:none"
         d="m 22.59888,108.8331 c -0.913199,1.15735 -0.830593,2.95496 -1.321834,4.34775 -3.550487,16.21558 -7.108807,32.45056 -10.460393,48.69604 1.673715,1.94483 4.179314,3.05362 6.227946,4.58282 7.008915,4.56091 14.028886,9.10742 21.103204,13.56595 0.916421,-0.33254 0.351448,-2.01379 0.700733,-2.83601 0.618437,-6.80976 1.91498,-13.52886 3.157429,-20.24062 -1.885185,-0.76453 -4.19504,-0.6625 -6.230924,-1.10987 -3.922784,-0.57869 -7.859782,-1.08955 -11.756608,-1.79745 -0.544901,-14.99104 -0.726448,-30.02109 -1.087273,-45.01379 -0.04897,-0.12926 -0.18573,-0.22767 -0.33228,-0.19482 z"
         id="path1112"
         inkscape:connector-curvature="0" />
    </g>
    <g
       inkscape:groupmode="layer"
       id="layer2"
       inkscape:label="tint">
      <path
         style="fill:#ffffff;fill-opacity:1;stroke-width:1.12253201;stroke-linecap:round;stroke-miterlimit:4;stroke-dasharray:none;filter:url(#filter1075)"
         d="m 60.688918,147.0534 c -5.902058,1.86462 -11.924335,3.64589 -17.675493,5.80047 -2.968014,12.30003 -5.0684,24.90828 -4.759801,37.60117 -0.138285,10.89109 0.53249,21.8107 2.861506,32.47415 3.100787,15.50852 8.596347,30.57954 16.353817,44.35937 0.885989,1.07743 2.756466,1.72 4.023138,1.15542 0.630166,-1.18503 0.39593,-4.03608 2.454809,-3.53787 1.918753,0.76347 3.425931,2.44725 5.328368,3.12057 0.77145,-0.79131 -0.002,-2.88713 1.78027,-2.54689 2.27203,-0.10252 3.01913,3.54977 5.27721,3.16151 0.95431,-1.49143 0.15315,-3.60191 1.17808,-5.13471 0.79597,-2.27826 3.33526,-3.47124 5.62947,-2.6609 3.77962,0.7536 7.3886,2.55775 10.00559,5.39854 2.17519,0.46695 4.52316,-0.44531 6.61972,-1.05603 1.498468,-0.71375 2.489158,-2.40557 1.459758,-3.96565 -1.04607,-3.78606 -2.095948,-7.57111 -3.133328,-11.35955 -2.60469,0.27345 -5.49399,1.06183 -8.29591,0.765 -11.88544,-0.13663 -22.328581,-11.5052 -21.21061,-23.40833 0.12284,-9.3453 7.29699,-17.87822 16.15161,-20.49814 2.09226,-0.59451 0.12914,-2.96682 0.12077,-4.31144 -3.61185,-13.02418 -7.04684,-26.13229 -10.91856,-39.06463 -3.77863,-3.08428 -7.769991,-6.02918 -11.260403,-9.40194 -1.033074,-2.15561 -0.579832,-4.89737 -1.789036,-6.8989 l -0.127892,-0.006 z m 10.643594,21.49181 c 2.13948,0.23592 0.58745,3.67801 -0.9676,1.98708 -0.67374,-0.74704 0.0175,-1.99941 0.9676,-1.98708 z m 2.61924,9.72861 c 1.91158,0.16745 0.936,3.32559 -0.74178,2.22971 -0.91157,-0.65522 -0.39014,-2.24051 0.74178,-2.22971 z m 2.78221,10.11302 c 1.42334,0.22891 1.48914,2.6469 -0.13593,2.40365 -1.60328,-0.17501 -1.40912,-2.16527 0.13593,-2.40365 z m 3.01096,10.06771 c 1.65262,0.3695 1.21399,3.02136 -0.5028,2.39634 -1.32394,-0.41082 -0.51447,-2.22228 0.5028,-2.39634 z m 16.28329,58.02233 c 1.91159,0.16745 0.93601,3.3256 -0.74177,2.22972 -0.91158,-0.65523 -0.39015,-2.24051 0.74177,-2.22972 z"
         id="path113"
         inkscape:connector-curvature="0" />
      <path
         style="fill:#ffffff;fill-opacity:1;stroke-width:0.39687502;stroke-linecap:round;stroke-miterlimit:4;stroke-dasharray:none;filter:url(#filter1067)"
         d="m 92.588632,128.94082 c -7.09889,2.35526 -14.25746,4.54531 -21.29921,7.06416 -0.33274,0.57014 0.40593,1.18629 0.54958,1.75571 0.84459,1.54336 1.47138,3.24676 2.55694,4.63744 0.64067,0.22234 1.31903,-0.36853 1.965,-0.44648 5.43847,-1.75988 10.86526,-3.55579 16.29668,-5.3374 0.41823,-0.64177 0.12823,-1.59332 0.26693,-2.35576 0.0206,-1.74987 0.19592,-3.55759 -0.0866,-5.27091 -0.0834,0.0161 -0.16574,-0.0869 -0.24934,-0.0468 z"
         id="path119"
         inkscape:connector-curvature="0" />
      <path
         style="fill:#ffffff;fill-opacity:1;stroke-width:0.39687502;stroke-linecap:round;stroke-miterlimit:4;stroke-dasharray:none;filter:url(#filter1063)"
         d="m 59.651886,139.83937 c -3.628792,0.89654 -7.143393,2.2222 -10.713429,3.32915 -3.492743,1.18426 -7.041859,2.23071 -10.471325,3.58594 -0.375663,0.51887 0.488619,0.96892 0.692936,1.41309 1.251511,1.54718 2.524816,3.07747 3.820483,4.58757 0.768625,0.12707 1.542828,-0.46368 2.311585,-0.59644 5.242727,-1.7193 10.487441,-3.43319 15.719097,-5.18563 0.417031,-0.51248 -0.116265,-1.29636 -0.08241,-1.90716 -0.336859,-1.70667 -0.501025,-3.48271 -0.975659,-5.14357 -0.07998,-0.0769 -0.19573,-0.0916 -0.301273,-0.0829 z"
         id="path121"
         inkscape:connector-curvature="0" />
      <path
         style="fill:#ffffff;fill-opacity:1;stroke-width:0.280633;stroke-linecap:round;stroke-miterlimit:4;stroke-dasharray:none;filter:url(#filter1059)"
         d="m 141.85281,251.04666 c -1.372,0.42931 -2.60939,1.21785 -3.92844,1.78624 -9.05738,4.31021 -18.54409,7.64402 -28.23935,10.2043 -0.42522,0.20596 -1.13612,0.15618 -1.33296,0.65531 0.13689,1.25711 0.0437,2.55272 0.3307,3.78671 0.39545,0.68899 1.23508,0.14659 1.7249,-0.13483 2.64228,-1.61896 5.24344,-3.64756 8.41333,-4.04104 0.70625,-0.0341 1.77474,-0.18568 2.08428,0.65499 0.27926,1.1817 -0.30297,2.39693 -0.80856,3.46015 -1.26564,2.63646 -3.26995,4.80188 -5.3069,6.86883 -0.33356,0.17778 -0.21105,0.77672 0.20372,0.58647 3.10587,-1.78211 6.33703,-3.55796 9.90528,-4.03892 2.15723,-0.27186 4.69441,-0.33028 6.46516,1.19587 1.00636,0.79751 1.54679,1.99991 2.3609,2.95706 0.46689,0.36009 0.84875,-0.28324 0.96522,-0.67089 1.07689,-2.63746 1.48727,-5.68849 3.50006,-7.81259 0.59329,-0.67466 1.37764,-1.11865 2.12119,-1.59245 0.18273,-0.82507 0.34815,-1.91551 0.51553,-2.85988 0.58653,-3.5573 1.07294,-7.13578 1.37217,-10.72835 -0.0125,-0.17133 -0.18037,-0.29356 -0.34623,-0.27698 z"
         id="path125"
         inkscape:connector-curvature="0" />
      <path
         style="fill:#ffffff;fill-opacity:1;stroke-width:0.280633;stroke-linecap:round;stroke-miterlimit:4;stroke-dasharray:none;filter:url(#filter1055)"
         d="m 99.672162,265.22649 c -2.04838,0.51229 -4.12977,0.87898 -6.22143,1.16346 -0.53885,0.28021 0.14695,0.7953 0.29124,1.13962 0.89227,1.28594 1.30138,2.82872 2.08483,4.16664 0.31338,0.43609 0.8109,0.0441 0.97618,-0.31261 1.12439,-1.81897 2.05219,-3.75275 3.12458,-5.60223 0.158638,-0.22868 0.102128,-0.61373 -0.2554,-0.55488 z"
         id="path127"
         inkscape:connector-curvature="0" />
      <path
         style="fill:#ffffff;fill-opacity:1;stroke-width:0.1403165;stroke-linecap:round;stroke-miterlimit:4;stroke-dasharray:none;filter:url(#filter1051)"
         d="m 75.149602,268.67818 c -0.25514,0.30533 0.14084,0.62432 0.24547,0.91879 0.81341,1.5374 1.41424,3.18431 2.02818,4.82249 0.11899,0.29953 0.6043,0.13353 0.51514,-0.17613 -0.36057,-1.79514 -0.79337,-3.57248 -0.98852,-5.38948 -0.13944,-0.38918 -0.63796,-0.1769 -0.95034,-0.23103 -0.28138,0.0225 -0.58379,-0.0534 -0.84993,0.0554 z"
         id="path129"
         inkscape:connector-curvature="0" />
      <path
         style="fill:#ffffff;fill-opacity:1;stroke-width:0.1403165;stroke-linecap:round;stroke-miterlimit:4;stroke-dasharray:none;filter:url(#filter1047)"
         d="m 57.980193,267.84084 c -0.329353,0.0787 -0.220975,0.44296 -0.07824,0.63815 0.358539,0.72546 0.823947,1.39099 1.383548,1.97533 1.416712,1.69508 2.40823,3.67825 3.532752,5.56638 0.369638,0.59157 0.66634,1.23933 1.109038,1.77988 0.26285,0.22374 0.571931,-0.1503 0.410353,-0.41045 -0.733076,-2.3744 -1.727476,-4.68167 -2.311652,-7.08567 -0.136371,-0.47566 -0.122714,-0.99787 -0.32303,-1.4476 -0.821518,-0.29655 -1.688113,-0.48456 -2.528895,-0.7331 -0.396698,-0.0894 -0.788768,-0.24874 -1.193877,-0.28292 z"
         id="path131"
         inkscape:connector-curvature="0" />
      <path
         style="fill:#ffffff;fill-opacity:1;stroke-width:1.12253201;stroke-linecap:round;stroke-miterlimit:4;stroke-dasharray:none;filter:url(#filter1071)"
         d="m 83.740292,139.38934 c -3.03971,0.97929 -6.07941,1.95858 -9.11911,2.93787 0.29744,2.23186 2.13123,4.40899 2.98611,6.62119 -1.08502,4.89498 -2.79357,9.78453 -3.50043,14.6832 3.89189,14.09841 7.78341,28.19692 11.67459,42.29553 4.73748,0.42868 10.02213,-0.31795 14.478178,2.08794 10.00347,4.54817 15.46363,16.98609 11.82659,27.37653 -2.05871,6.63932 -7.66025,11.62654 -13.921098,14.27189 0.68105,4.25332 2.296988,8.58608 3.290858,12.88574 1.41495,-0.14087 2.80016,-2.24918 4.61364,-1.53764 1.77342,0.37132 2.12458,3.4567 4.22336,2.01949 10.96895,-3.00846 21.82454,-6.95071 31.88914,-12.14493 1.97302,-24.75371 -2.9939,-50.05433 -14.61371,-72.03459 -8.53258,-16.27359 -20.45859,-30.87992 -34.708278,-42.40083 -3.03995,0.97953 -6.07989,1.95907 -9.11984,2.93861 z"
         id="path115"
         inkscape:connector-curvature="0" />
    </g>
    <g
       inkscape:groupmode="layer"
       id="layer7"
       inkscape:label="shape">
      <path
         style="fill:none;fill-opacity:1;stroke:#000000;stroke-width:0.26458335;stroke-linecap:butt;stroke-linejoin:miter;stroke-miterlimit:4;stroke-dasharray:none;stroke-opacity:1;filter:url(#filter971)"
         d="M 112.54127,156.03471 124.57982,125.24383 81.717312,86.614662 109.23398,126.30217 96.016892,139.11696"
         id="path950"
         inkscape:connector-curvature="0" />
      <path
         style="fill:none;stroke:#000000;stroke-width:0.26458335;stroke-linecap:butt;stroke-linejoin:miter;stroke-miterlimit:4;stroke-dasharray:none;stroke-opacity:1;filter:url(#filter1043)"
         d="m 43.088141,152.77219 18.053564,-5.92815 m 13.210847,-4.33797 18.45042,-6.05846"
         id="path948"
         inkscape:connector-curvature="0"
         sodipodi:nodetypes="cccc" />
      <path
         style="fill:none;stroke:#000000;stroke-width:0.26458335;stroke-linecap:butt;stroke-linejoin:miter;stroke-miterlimit:4;stroke-dasharray:none;stroke-opacity:1;filter:url(#filter1039)"
         d="m 92.812992,136.4451 0.0702,-7.4971 -21.79723,7.10317 m -11.190957,3.64685 -21.767802,7.09359 4.960978,5.96889"
         id="path967"
         inkscape:connector-curvature="0"
         sodipodi:nodetypes="cccccc" />
      <g
         id="g1478"
         style="stroke-width:0.26458335;stroke-miterlimit:4;stroke-dasharray:none;filter:url(#filter1035)"
         transform="translate(-9.8285272,46.927158)">
        <path
           transform="translate(0,-47.624983)"
           sodipodi:nodetypes="ccccccccccccccccccccccccccccccccccccccccccccccccccccc"
           inkscape:original-d="m 26.526501,285.74999 c 5.635197,-0.93661 11.270131,-1.87295 16.904799,-2.80903 7.018384,-0.78898 14.037252,-1.57779 21.055483,-2.36628 -6.313286,-1.17298 -12.626844,-2.34569 -18.94065,-3.51814 -1.700705,-1.57524 -3.401523,-3.15007 -5.10268,-4.72471 3.717054,0.50371 7.433797,1.00768 11.150298,1.51191 3.622318,1.41706 7.133496,2.791 10.866817,4.25223 -1.460704,-1.07164 -2.834564,-2.07914 -4.252233,-3.1183 -0.188712,-1.51207 -0.377711,-3.02408 -0.566965,-4.53572 1.637916,-1.07103 3.27606,-2.14213 4.913691,-3.21279 1.952776,0.69256 3.90602,1.38565 5.858632,2.07886 1.071112,1.76349 2.14213,3.52752 3.212798,5.29167 1.323242,2.3937 2.645874,4.78703 3.968748,7.18155 -1.38588,-3.52864 -2.771562,-7.05582 -4.157737,-10.58333 2.64e-4,-0.94511 2.64e-4,-1.89015 0,-2.83483 0.189198,-1.07089 0.37824,-2.14212 0.566965,-3.21279 1.007917,0.12569 2.016138,0.25172 3.023809,0.37797 1.700774,1.57428 3.40205,3.14954 5.102678,4.72471 -0.503701,-1.63816 -1.007671,-3.27606 -1.511904,-4.9137 1.637993,0.31469 3.276058,0.6297 4.913691,0.94495 1.071063,2.2673 2.142128,4.53545 3.212796,6.80357 0.189262,0.75572 0.378241,1.38564 0.566965,2.07887 0.378339,0.8504 0.756178,1.70054 1.13393,2.55133 -0.81877,-3.05589 -1.637633,-6.11088 -2.456846,-9.16592 0.441213,-1.95304 0.882208,-3.90602 1.322916,-5.85863 1.134012,-0.7561 2.268122,-1.51217 3.401785,-2.26786 3.275177,1.0074 6.551851,2.01561 9.827383,3.02382 1.51209,2.14149 3.02407,4.28346 4.53571,6.42559 0.25226,1.44868 0.50424,2.89755 0.75595,4.34673 0.88234,-2.07944 1.76416,-4.15801 2.64584,-6.23661 1.82687,-2.70868 3.65403,-5.41793 5.48066,-8.12649 1.76395,1.00756 3.52804,2.01561 5.29166,3.02381 -0.56667,2.58245 -1.13366,5.16541 -1.70089,7.74851 2.01638,-1.89037 4.03201,-3.78002 6.04762,-5.66964 2.96068,-0.8191 5.92189,-1.63816 8.88244,-2.45685 -0.94458,2.45632 -1.88962,4.91343 -2.83483,7.37054 -1.63784,1.82686 -3.27552,3.52751 -4.91368,5.29167 -0.75581,0.62979 -1.51164,1.25965 -2.26786,1.88988 2.71012,-1.76482 5.41792,-3.52805 8.12649,-5.29167 2.96074,-0.3782 5.92189,-0.75622 8.88244,-1.13393 1.13408,1.13355 2.26812,2.26759 3.40178,3.40179 0.37824,1.00767 0.75622,2.01561 1.13393,3.02381 0.50431,-1.89042 1.0082,-3.78003 1.5119,-5.66964 0.56714,-1.44894 1.1342,-2.89809 1.7009,-4.34673 1.76376,-1.07096 3.52804,-2.14213 5.29167,-3.2128 -0.25168,2.89704 -0.50371,5.79537 -0.75596,8.69345 -0.31474,0.88177 -0.62969,1.76363 -0.94494,2.64584 3.97045,-2.39498 7.93777,-4.78797 11.90625,-7.18155 1.38607,-0.0633 2.77209,-0.12626 4.15774,-0.18899 -1.32239,2.89698 -2.64557,5.79537 -3.96875,8.69345 -1.3858,1.07079 -2.77156,2.1416 -4.15774,3.2128 3.40277,0.62983 6.80384,1.25966 10.20536,1.88988 5.41759,1.32257 10.83558,2.64557 16.25298,3.96875"
           inkscape:path-effect="#path-effect876"
           inkscape:connector-curvature="0"
           id="path874"
           d="m 26.526501,285.74999 c 5.635233,-0.93639 11.270166,-1.87274 17.596688,-2.73526 6.326521,-0.86252 13.34539,-1.65132 13.69782,-2.63202 0.352431,-0.9807 -5.961126,-2.15342 -9.968481,-3.52728 -4.007355,-1.37385 -5.708171,-2.94869 -4.700116,-3.48414 1.008055,-0.53546 4.724799,-0.0315 8.394165,0.92917 3.669367,0.96066 7.180546,2.3346 8.316807,2.52938 1.136261,0.19479 -0.237601,-0.81271 -1.040827,-2.08846 -0.803226,-1.27574 -0.992227,-2.78775 -0.267729,-4.07908 0.724498,-1.29132 2.362646,-2.36241 4.157771,-2.55134 1.795125,-0.18892 3.748371,0.50416 5.260134,1.73245 1.511764,1.22829 2.582781,2.99232 3.779734,5.07124 1.196953,2.07891 2.519582,4.47224 2.488076,3.90516 -0.03151,-0.56708 -1.417184,-4.09426 -2.110113,-6.33064 -0.692928,-2.23637 -0.692928,-3.18141 -0.598434,-4.18921 0.09449,-1.00781 0.283535,-2.07904 0.881943,-2.55136 0.598408,-0.47233 1.60663,-0.3463 2.960742,0.50396 1.354113,0.85026 3.05539,2.42552 3.653822,2.39393 0.598433,-0.0316 0.09446,-1.66948 0.661474,-2.33086 0.567008,-0.66137 2.205072,-0.34635 3.559289,0.94484 1.354216,1.2912 2.425285,3.55935 3.063248,5.06906 0.637963,1.5097 0.810949,2.14399 1.094478,2.91583 0.28353,0.77184 0.661372,1.62198 0.440865,0.5194 -0.220508,-1.10258 -1.039371,-4.15757 -1.228312,-6.66167 -0.18894,-2.5041 0.252055,-4.45708 1.039533,-5.81139 0.787478,-1.3543 1.921586,-2.11037 4.125937,-1.98439 2.204351,0.12599 5.481024,1.1342 7.874734,2.709 2.393711,1.57479 3.905691,3.71676 4.787641,5.51209 0.88194,1.79532 1.13392,3.24419 1.70104,2.92901 0.56711,-0.31518 1.44893,-2.39375 2.80324,-4.78739 1.35431,-2.39363 3.18148,-5.10287 4.97671,-5.9532 1.79522,-0.85033 3.55931,0.15772 4.15778,1.95287 0.59846,1.79515 0.0315,4.37811 0.75615,4.7245 0.72468,0.34639 2.74031,-1.54326 5.22847,-2.89754 2.48817,-1.35428 5.44938,-2.17334 6.45727,-1.35464 1.00789,0.81871 0.0628,3.27581 -1.24432,5.40324 -1.30717,2.12742 -2.91343,3.85724 -4.1104,5.05424 -1.19697,1.19699 -1.9528,1.82685 -0.97584,1.25957 0.97696,-0.56728 3.68477,-2.3305 6.51941,-3.40133 2.83465,-1.07083 5.7958,-1.44885 7.84297,-1.07091 2.04716,0.37794 3.1812,1.51198 3.93713,2.58284 0.75592,1.07086 1.1339,2.0788 1.57498,1.63761 0.44107,-0.4412 0.94497,-2.33081 1.48041,-4.00009 0.53544,-1.66927 1.1025,-3.11842 2.26782,-4.37816 1.16533,-1.25973 2.92961,-2.3309 3.68544,-1.41777 0.75583,0.91314 0.5038,3.81147 0.22035,5.70138 -0.28346,1.8899 -0.59841,2.77176 1.2293,2.01545 1.8277,-0.75632 5.79502,-3.14931 8.47228,-4.37764 2.67725,-1.22833 4.06327,-1.29134 4.09484,0.12563 0.0316,1.41698 -1.29162,4.31537 -2.64604,6.29985 -1.35441,1.98447 -2.74017,3.05529 -1.73192,3.90593 1.00825,0.85065 4.40932,1.48048 8.81887,2.45688 4.40954,0.9764 9.82753,2.2994 15.24501,3.62227"
           style="fill:url(#radialGradient1362);fill-opacity:1;stroke:#000000;stroke-width:0.26458335;stroke-linecap:butt;stroke-linejoin:miter;stroke-miterlimit:4;stroke-dasharray:none;stroke-opacity:1" />
        <path
           inkscape:connector-curvature="0"
           id="path61"
           d="M 185.20834,238.12501 H 26.458334"
           style="fill:none;fill-opacity:1;stroke:#000000;stroke-width:0.26458335;stroke-linecap:round;stroke-linejoin:miter;stroke-miterlimit:4;stroke-dasharray:none;stroke-opacity:1" />
      </g>
      <path
         style="fill:none;stroke:#000000;stroke-width:0.26458335;stroke-linecap:butt;stroke-linejoin:miter;stroke-miterlimit:4;stroke-dasharray:none;stroke-opacity:1;filter:url(#filter1031)"
         d="m 151.93698,203.99376 c -5.51621,2.79679 -11.19553,5.27182 -16.99948,7.40833 -5.47401,2.01505 -11.05885,3.729 -16.72084,5.13152"
         id="path969"
         inkscape:connector-curvature="0"
         inkscape:path-effect="#path-effect971"
         inkscape:original-d="m 151.93698,203.99376 c -5.66623,2.46917 -11.33272,4.93862 -16.99948,7.40833 -5.66676,2.46971 -11.14696,3.42075 -16.72084,5.13152"
         transform="translate(-9.8285272,46.927158)" />
      <path
         style="fill:none;stroke:#000000;stroke-width:0.26458335;stroke-linecap:butt;stroke-linejoin:miter;stroke-miterlimit:4;stroke-dasharray:none;stroke-opacity:1;filter:url(#filter1027)"
         d="m 110.01706,218.24818 c -0.86194,0.25412 -1.73373,0.47483 -2.61276,0.66146 -1.45593,0.30912 -2.93171,0.52468 -4.41523,0.64492"
         id="path981"
         inkscape:connector-curvature="0"
         inkscape:path-effect="#path-effect983"
         inkscape:original-d="m 110.01706,218.24818 c -0.87066,0.22022 -1.74157,0.44071 -2.61276,0.66146 -0.87119,0.22075 -2.94323,0.42968 -4.41523,0.64492"
         transform="translate(-9.8285272,46.927158)" />
      <path
         style="fill:none;stroke:#000000;stroke-width:0.26458335;stroke-linecap:butt;stroke-linejoin:miter;stroke-miterlimit:4;stroke-dasharray:none;stroke-opacity:1;filter:url(#filter1023)"
         d="M 86.575283,221.81886 H 84.844712"
         id="path985"
         inkscape:connector-curvature="0"
         inkscape:path-effect="#path-effect987"
         inkscape:original-d="m 86.575283,221.81886 c -0.576591,-2.6e-4 -1.153448,-2.6e-4 -1.730571,0"
         transform="translate(-9.8285272,46.927158)" />
      <path
         style="fill:none;stroke:#000000;stroke-width:0.26458335;stroke-linecap:butt;stroke-linejoin:miter;stroke-miterlimit:4;stroke-dasharray:none;stroke-opacity:1;filter:url(#filter1019)"
         d="m 71.503648,222.0185 -3.988024,-1.1117"
         id="path997"
         inkscape:connector-curvature="0"
         inkscape:path-effect="#path-effect999"
         inkscape:original-d="m 71.503648,222.0185 c -4.143128,-0.37695 -0.172894,-0.22923 -3.988024,-1.1117"
         sodipodi:nodetypes="cc"
         transform="translate(-9.8285272,46.927158)" />
      <circle
         style="fill:none;fill-opacity:1;stroke:#000000;stroke-width:0.26458335;stroke-linecap:round;stroke-miterlimit:4;stroke-dasharray:none;stroke-opacity:1;filter:url(#filter1015)"
         id="path1028"
         cx="90.825172"
         cy="228.33487"
         r="22.489584" />
      <circle
         style="fill:none;fill-opacity:0.94117647;stroke:#000000;stroke-width:0.26458335;stroke-linecap:round;stroke-miterlimit:4;stroke-dasharray:none;stroke-opacity:1;filter:url(#filter1011)"
         id="path1028-9"
         cx="91.012276"
         cy="228.33485"
         r="15.875001" />
      <path
         style="fill:none;stroke:#000000;stroke-width:0.26458335;stroke-linecap:butt;stroke-linejoin:miter;stroke-miterlimit:4;stroke-dasharray:none;stroke-opacity:1;filter:url(#filter1007)"
         d="m 74.020272,163.35463 11.93954,42.99522 m 12.03339,43.33322 3.683118,13.26321"
         id="path1090"
         inkscape:connector-curvature="0"
         sodipodi:nodetypes="cccc" />
      <circle
         style="fill:url(#linearGradient1237);fill-opacity:1;stroke:#000000;stroke-width:0.26458335;stroke-linecap:round;stroke-miterlimit:4;stroke-dasharray:none;stroke-opacity:1;filter:url(#filter1003)"
         id="path1098"
         cx="71.245636"
         cy="169.72612"
         r="1.3229167" />
      <circle
         style="fill:url(#linearGradient1235);fill-opacity:1;stroke:#000000;stroke-width:0.26458335;stroke-linecap:round;stroke-miterlimit:4;stroke-dasharray:none;stroke-opacity:1;filter:url(#filter999)"
         id="path1098-1"
         cx="73.912094"
         cy="179.48341"
         r="1.3229167" />
      <circle
         style="fill:url(#linearGradient1233);fill-opacity:1;stroke:#000000;stroke-width:0.26458335;stroke-linecap:round;stroke-miterlimit:4;stroke-dasharray:none;stroke-opacity:1;filter:url(#filter995)"
         id="path1098-0"
         cx="76.690231"
         cy="189.66986"
         r="1.3229167" />
      <circle
         style="fill:url(#linearGradient1231);fill-opacity:1;stroke:#000000;stroke-width:0.26458335;stroke-linecap:round;stroke-miterlimit:4;stroke-dasharray:none;stroke-opacity:1;filter:url(#filter991)"
         id="path1098-9"
         cx="79.687531"
         cy="199.8364"
         r="1.3229167" />
      <circle
         style="fill:url(#linearGradient1229);fill-opacity:1;stroke:#000000;stroke-width:0.26458335;stroke-linecap:round;stroke-miterlimit:4;stroke-dasharray:none;stroke-opacity:1;filter:url(#filter987)"
         id="path1098-3"
         cx="95.972878"
         cy="257.61426"
         r="1.3229167" />
      <path
         style="fill:url(#linearGradient1061);fill-opacity:1;stroke:#000000;stroke-width:0.26458335;stroke-linecap:butt;stroke-linejoin:miter;stroke-miterlimit:4;stroke-dasharray:none;stroke-opacity:1;filter:url(#filter983)"
         d="m 77.639082,148.97753 -24.711369,-48.75112 9.493043,53.83347 11.622826,9.49649 z"
         id="path924"
         inkscape:connector-curvature="0"
         sodipodi:nodetypes="ccccc" />
      <path
         style="fill:none;fill-opacity:1;stroke:#000000;stroke-width:0.26458335;stroke-linecap:butt;stroke-linejoin:miter;stroke-miterlimit:4;stroke-dasharray:none;stroke-opacity:1;filter:url(#filter979)"
         d="m 38.524721,180.22628 -27.795937,-17.89947 12.103112,-56.41739 0.953105,48.28413 18.219051,2.6413"
         id="path950-6"
         inkscape:connector-curvature="0" />
      <path
         style="fill:none;stroke:#000000;stroke-width:0.26458335;stroke-linecap:butt;stroke-linejoin:miter;stroke-miterlimit:4;stroke-dasharray:none;stroke-opacity:1;filter:url(#filter975)"
         d="M 68.538737,222.74268 C 64.694531,216.06251 61.348351,209.09582 58.53713,201.9195 46.639053,171.54678 44.64086,137.38611 52.916668,105.83334"
         id="path920"
         inkscape:connector-curvature="0"
         inkscape:path-effect="#path-effect922"
         inkscape:original-d="M 68.538737,222.74268 C 65.509945,210.44801 61.56645,214.03545 58.53713,201.9195 55.507812,189.80355 51.669674,134.34182 52.916668,105.83334"
         sodipodi:nodetypes="csc"
         transform="translate(-9.8285272,46.927158)" />
      <path
         style="fill:url(#linearGradient1088);fill-opacity:1;stroke:#000000;stroke-width:0.26458335;stroke-linecap:butt;stroke-linejoin:miter;stroke-miterlimit:4;stroke-dasharray:none;stroke-opacity:1;filter:url(#filter967)"
         d="m 150.07184,217.80982 c 2.65324,-13.89124 3.06103,-28.20885 1.20272,-42.22858 -4.43743,-33.47755 -22.25037,-64.99275 -48.64306,-86.060795"
         id="path880"
         inkscape:connector-curvature="0"
         inkscape:path-effect="#path-effect882"
         inkscape:original-d="m 150.07184,217.80982 c 0.40117,-14.07646 0.80208,-28.15265 1.20272,-42.22858 0.40064,-14.07594 -32.42844,-57.37413 -48.64306,-86.060795"
         transform="translate(-9.8285272,46.927158)" />
    </g>
  </g>
</svg>
